<?xml version="1.0" encoding="UTF-8"?>
<svg xmlns="http://www.w3.org/2000/svg" version="1.1" height="16" width="16" viewbox="0 0 16 16">
  <path d="M12.42 0.93C12.42 0.93 8 5.35 8 5.35C8 5.35 3.58 0.93 3.58 0.93C3.58 0.93 0.93 3.58 0.93 3.58C0.93 3.58 5.35 8 5.35 8C5.35 8 0.93 12.42 0.93 12.42C0.93 12.42 3.58 15.07 3.58 15.07C3.58 15.07 8 10.65 8 10.65C8 10.65 12.42 15.07 12.42 15.07C12.42 15.07 15.07 12.42 15.07 12.42C15.07 12.42 10.65 8 10.65 8C10.65 8 15.07 3.58 15.07 3.58C15.07 3.58 12.42 0.93 12.42 0.93" stroke="rgb(0,0,0)" stroke-width="1" fill="rgb(173,173,173)" />
</svg>
